<svg xmlns="http://www.w3.org/2000/svg" width="1024" height="1024" viewBox="0 0 1024 1024">
  <defs>
    <linearGradient id="bg" x1="0" y1="0" x2="1" y2="1">
      <stop offset="0%" stop-color="#F7F1E6"/>
      <stop offset="100%" stop-color="#EADDC9"/>
    </linearGradient>
    <linearGradient id="paper" x1="0" y1="0" x2="0" y2="1">
      <stop offset="0%" stop-color="#FFFDF8"/>
      <stop offset="100%" stop-color="#F8F2E8"/>
    </linearGradient>
  </defs>

  <rect x="64" y="64" width="896" height="896" rx="220" fill="url(#bg)"/>

  <!-- writing sheet -->
  <rect x="248" y="196" width="528" height="632" rx="42" fill="url(#paper)" stroke="#D8C7AE" stroke-width="10"/>

  <!-- focused text lines -->
  <rect x="308" y="290" width="408" height="20" rx="10" fill="#2E2A25" fill-opacity="0.88"/>
  <rect x="308" y="340" width="356" height="20" rx="10" fill="#2E2A25" fill-opacity="0.8"/>
  <rect x="308" y="390" width="392" height="20" rx="10" fill="#2E2A25" fill-opacity="0.72"/>
  <rect x="308" y="440" width="330" height="20" rx="10" fill="#2E2A25" fill-opacity="0.62"/>

  <!-- fountain pen nib (focus on writing) -->
  <path d="M520 558l150 150-80 80-150-150z" fill="#4B3C2E"/>
  <path d="M490 588l150 150-30 30-150-150z" fill="#C7A57A"/>
  <path d="M412 678l118-118 44 44-118 118c-24 24-63 24-87 0-24-24-24-63 0-87z" fill="#2F2720"/>
  <circle cx="472" cy="662" r="12" fill="#F7F1E6"/>

  <!-- subtle AI accent (small, non-dominant) -->
  <path d="M750 246l10 24 24 10-24 10-10 24-10-24-24-10 24-10z" fill="#8B7D6B" fill-opacity="0.7"/>
</svg>
